<svg width="25" height="27" viewBox="0 0 25 27" fill="none" xmlns="http://www.w3.org/2000/svg">
<path d="M12.5 0C9.10414 0 8.68023 0.0168122 7.34688 0.0806988C6.01563 0.147948 5.10937 0.373232 4.3125 0.706114C3.49062 1.04908 2.79271 1.50974 2.09791 2.25732C1.40312 3.00491 0.973961 3.75474 0.65625 4.64018C0.346875 5.4976 0.136459 6.47272 0.075 7.90512C0.0125 9.33979 0 9.79591 0 13.4498C0 17.1037 0.015625 17.5598 0.075 18.9945C0.1375 20.4258 0.346875 21.402 0.65625 22.2594C0.975 23.1426 1.40312 23.8947 2.09791 24.6423C2.79271 25.3888 3.48959 25.8516 4.3125 26.1935C5.11041 26.5253 6.01666 26.7527 7.34688 26.8189C8.68023 26.8861 9.10414 26.8996 12.5 26.8996C15.8959 26.8996 16.3198 26.8828 17.6531 26.8189C18.9834 26.7516 19.8906 26.5253 20.6875 26.1935C21.5084 25.8505 22.2073 25.3888 22.9021 24.6423C23.5959 23.8947 24.026 23.146 24.3437 22.2594C24.6521 21.402 24.8635 20.4258 24.925 18.9945C24.9875 17.5598 25 17.1037 25 13.4498C25 9.79591 24.9844 9.33979 24.925 7.90512C24.8625 6.47383 24.6521 5.49649 24.3437 4.64018C24.025 3.75586 23.5959 3.00491 22.9021 2.25732C22.2073 1.50974 21.5115 1.04797 20.6875 0.706114C19.8906 0.373232 18.9834 0.146827 17.6531 0.0806988C16.3198 0.0134498 15.8959 0 12.5 0ZM12.5 2.42096C15.8365 2.42096 16.2344 2.43889 17.5521 2.50054C18.7709 2.56219 19.4323 2.77963 19.8719 2.96568C20.4573 3.20889 20.8719 3.50031 21.3115 3.96993C21.7479 4.44068 22.0188 4.88788 22.2448 5.51778C22.4156 5.99077 22.6198 6.70248 22.675 8.01383C22.7344 9.43276 22.7479 9.8587 22.7479 13.4498C22.7479 17.0409 22.7323 17.4679 22.6709 18.8858C22.6073 20.1971 22.4041 20.9088 22.2323 21.3818C21.999 22.0117 21.7334 22.4578 21.2959 22.9308C20.8594 23.4004 20.4375 23.6918 19.8584 23.935C19.4209 24.1189 18.749 24.3385 17.5302 24.3979C16.2031 24.4618 15.8125 24.4764 12.4688 24.4764C9.12398 24.4764 8.73336 24.4595 7.40729 24.3935C6.1875 24.3251 5.51563 24.1065 5.07812 23.9216C4.48541 23.6706 4.07813 23.3847 3.64166 22.914C3.20313 22.4443 2.92291 21.9904 2.70416 21.3673C2.53229 20.8965 2.33021 20.1736 2.26666 18.8622C2.21979 17.45 2.20312 17.014 2.20312 13.433C2.20312 9.85088 2.21979 9.41377 2.26666 7.9847C2.33021 6.67334 2.53229 5.95154 2.70416 5.48079C2.92291 4.84193 3.20313 4.40481 3.64166 3.93295C4.07813 3.46332 4.48541 3.1607 5.07812 2.92645C5.51563 2.7404 6.17291 2.52184 7.39166 2.45459C8.71977 2.40415 9.11039 2.38734 12.4531 2.38734L12.5 2.42096ZM12.5 6.54333C8.95313 6.54333 6.08125 9.63678 6.08125 13.4498C6.08125 17.2662 8.95625 20.3563 12.5 20.3563C16.0469 20.3563 18.9187 17.2628 18.9187 13.4498C18.9187 9.63342 16.0437 6.54333 12.5 6.54333ZM12.5 17.933C10.1979 17.933 8.33336 15.9268 8.33336 13.4498C8.33336 10.9728 10.1979 8.96656 12.5 8.96656C14.8021 8.96656 16.6666 10.9728 16.6666 13.4498C16.6666 15.9268 14.8021 17.933 12.5 17.933ZM20.6729 6.27097C20.6729 7.16202 20 7.88494 19.1729 7.88494C18.3448 7.88494 17.6729 7.1609 17.6729 6.27097C17.6729 5.38104 18.3459 4.65811 19.1729 4.65811C19.999 4.65699 20.6729 5.38104 20.6729 6.27097Z" fill="white"/>
</svg>
