<svg width="25" height="21" viewBox="0 0 25 21" fill="none" xmlns="http://www.w3.org/2000/svg">
<path d="M24.4771 4.09734C24.3359 3.49553 24.0573 2.94626 23.6694 2.50454C23.2815 2.06281 22.7977 1.74413 22.2666 1.58042C20.3177 0.985351 12.5 0.985352 12.5 0.985352C12.5 0.985352 4.68229 0.985351 2.73229 1.58042C2.20147 1.74442 1.71802 2.06322 1.33029 2.50491C0.942562 2.94661 0.664158 3.49573 0.522916 4.09734C0 6.31733 0 10.9482 0 10.9482C0 10.9482 0 15.579 0.522916 17.799C0.664152 18.4009 0.94268 18.9501 1.33062 19.3918C1.71855 19.8335 2.20227 20.1522 2.73334 20.3159C4.68229 20.911 12.5 20.911 12.5 20.911C12.5 20.911 20.3177 20.911 22.2677 20.3159C22.7988 20.1524 23.2826 19.8337 23.6705 19.392C24.0585 18.9502 24.337 18.4009 24.4781 17.799C25 15.579 25 10.9482 25 10.9482C25 10.9482 25 6.31733 24.4771 4.09734ZM9.94273 15.1525V6.74391L16.4771 10.9482L9.94273 15.1525Z" fill="white"/>
</svg>
